<svg width="220" height="220" xmlns="http://www.w3.org/2000/svg">
<line x1="5" y1="5" x2="5" y2="25" stroke="black" stroke-width="3" />
<line x1="5" y1="25" x2="5" y2="45" stroke="black" stroke-width="3" />
<line x1="65" y1="25" x2="65" y2="45" stroke="black" stroke-width="3" />
<line x1="125" y1="25" x2="125" y2="45" stroke="black" stroke-width="3" />
<line x1="205" y1="25" x2="205" y2="45" stroke="black" stroke-width="3" />
<line x1="5" y1="45" x2="5" y2="65" stroke="black" stroke-width="3" />
<line x1="25" y1="45" x2="25" y2="65" stroke="black" stroke-width="3" />
<line x1="45" y1="45" x2="45" y2="65" stroke="black" stroke-width="3" />
<line x1="85" y1="45" x2="85" y2="65" stroke="black" stroke-width="3" />
<line x1="105" y1="45" x2="105" y2="65" stroke="black" stroke-width="3" />
<line x1="125" y1="45" x2="125" y2="65" stroke="black" stroke-width="3" />
<line x1="145" y1="45" x2="145" y2="65" stroke="black" stroke-width="3" />
<line x1="165" y1="45" x2="165" y2="65" stroke="black" stroke-width="3" />
<line x1="205" y1="45" x2="205" y2="65" stroke="black" stroke-width="3" />
<line x1="5" y1="65" x2="5" y2="85" stroke="black" stroke-width="3" />
<line x1="65" y1="65" x2="65" y2="85" stroke="black" stroke-width="3" />
<line x1="105" y1="65" x2="105" y2="85" stroke="black" stroke-width="3" />
<line x1="125" y1="65" x2="125" y2="85" stroke="black" stroke-width="3" />
<line x1="145" y1="65" x2="145" y2="85" stroke="black" stroke-width="3" />
<line x1="185" y1="65" x2="185" y2="85" stroke="black" stroke-width="3" />
<line x1="205" y1="65" x2="205" y2="85" stroke="black" stroke-width="3" />
<line x1="5" y1="85" x2="5" y2="105" stroke="black" stroke-width="3" />
<line x1="45" y1="85" x2="45" y2="105" stroke="black" stroke-width="3" />
<line x1="85" y1="85" x2="85" y2="105" stroke="black" stroke-width="3" />
<line x1="125" y1="85" x2="125" y2="105" stroke="black" stroke-width="3" />
<line x1="185" y1="85" x2="185" y2="105" stroke="black" stroke-width="3" />
<line x1="205" y1="85" x2="205" y2="105" stroke="black" stroke-width="3" />
<line x1="5" y1="105" x2="5" y2="125" stroke="black" stroke-width="3" />
<line x1="145" y1="105" x2="145" y2="125" stroke="black" stroke-width="3" />
<line x1="205" y1="105" x2="205" y2="125" stroke="black" stroke-width="3" />
<line x1="5" y1="125" x2="5" y2="145" stroke="black" stroke-width="3" />
<line x1="65" y1="125" x2="65" y2="145" stroke="black" stroke-width="3" />
<line x1="85" y1="125" x2="85" y2="145" stroke="black" stroke-width="3" />
<line x1="125" y1="125" x2="125" y2="145" stroke="black" stroke-width="3" />
<line x1="205" y1="125" x2="205" y2="145" stroke="black" stroke-width="3" />
<line x1="45" y1="145" x2="45" y2="165" stroke="black" stroke-width="3" />
<line x1="125" y1="145" x2="125" y2="165" stroke="black" stroke-width="3" />
<line x1="145" y1="145" x2="145" y2="165" stroke="black" stroke-width="3" />
<line x1="165" y1="145" x2="165" y2="165" stroke="black" stroke-width="3" />
<line x1="205" y1="145" x2="205" y2="165" stroke="black" stroke-width="3" />
<line x1="5" y1="165" x2="5" y2="185" stroke="black" stroke-width="3" />
<line x1="25" y1="165" x2="25" y2="185" stroke="black" stroke-width="3" />
<line x1="45" y1="165" x2="45" y2="185" stroke="black" stroke-width="3" />
<line x1="65" y1="165" x2="65" y2="185" stroke="black" stroke-width="3" />
<line x1="105" y1="165" x2="105" y2="185" stroke="black" stroke-width="3" />
<line x1="125" y1="165" x2="125" y2="185" stroke="black" stroke-width="3" />
<line x1="205" y1="165" x2="205" y2="185" stroke="black" stroke-width="3" />
<line x1="5" y1="185" x2="5" y2="205" stroke="black" stroke-width="3" />
<line x1="45" y1="185" x2="45" y2="205" stroke="black" stroke-width="3" />
<line x1="65" y1="185" x2="65" y2="205" stroke="black" stroke-width="3" />
<line x1="205" y1="185" x2="205" y2="205" stroke="black" stroke-width="3" />
<line x1="5" y1="5" x2="25" y2="5" stroke="black" stroke-width="3" />
<line x1="25" y1="5" x2="45" y2="5" stroke="black" stroke-width="3" />
<line x1="45" y1="5" x2="65" y2="5" stroke="black" stroke-width="3" />
<line x1="65" y1="5" x2="85" y2="5" stroke="black" stroke-width="3" />
<line x1="85" y1="5" x2="105" y2="5" stroke="black" stroke-width="3" />
<line x1="105" y1="5" x2="125" y2="5" stroke="black" stroke-width="3" />
<line x1="125" y1="5" x2="145" y2="5" stroke="black" stroke-width="3" />
<line x1="145" y1="5" x2="165" y2="5" stroke="black" stroke-width="3" />
<line x1="165" y1="5" x2="185" y2="5" stroke="black" stroke-width="3" />
<line x1="185" y1="5" x2="205" y2="5" stroke="black" stroke-width="3" />
<line x1="5" y1="25" x2="25" y2="25" stroke="black" stroke-width="3" />
<line x1="25" y1="25" x2="45" y2="25" stroke="black" stroke-width="3" />
<line x1="45" y1="25" x2="65" y2="25" stroke="black" stroke-width="3" />
<line x1="85" y1="25" x2="105" y2="25" stroke="black" stroke-width="3" />
<line x1="105" y1="25" x2="125" y2="25" stroke="black" stroke-width="3" />
<line x1="125" y1="25" x2="145" y2="25" stroke="black" stroke-width="3" />
<line x1="145" y1="25" x2="165" y2="25" stroke="black" stroke-width="3" />
<line x1="165" y1="25" x2="185" y2="25" stroke="black" stroke-width="3" />
<line x1="185" y1="25" x2="205" y2="25" stroke="black" stroke-width="3" />
<line x1="65" y1="45" x2="85" y2="45" stroke="black" stroke-width="3" />
<line x1="185" y1="45" x2="205" y2="45" stroke="black" stroke-width="3" />
<line x1="5" y1="65" x2="25" y2="65" stroke="black" stroke-width="3" />
<line x1="25" y1="65" x2="45" y2="65" stroke="black" stroke-width="3" />
<line x1="105" y1="65" x2="125" y2="65" stroke="black" stroke-width="3" />
<line x1="125" y1="65" x2="145" y2="65" stroke="black" stroke-width="3" />
<line x1="165" y1="65" x2="185" y2="65" stroke="black" stroke-width="3" />
<line x1="25" y1="85" x2="45" y2="85" stroke="black" stroke-width="3" />
<line x1="65" y1="85" x2="85" y2="85" stroke="black" stroke-width="3" />
<line x1="145" y1="85" x2="165" y2="85" stroke="black" stroke-width="3" />
<line x1="25" y1="105" x2="45" y2="105" stroke="black" stroke-width="3" />
<line x1="45" y1="105" x2="65" y2="105" stroke="black" stroke-width="3" />
<line x1="65" y1="105" x2="85" y2="105" stroke="black" stroke-width="3" />
<line x1="85" y1="105" x2="105" y2="105" stroke="black" stroke-width="3" />
<line x1="105" y1="105" x2="125" y2="105" stroke="black" stroke-width="3" />
<line x1="145" y1="105" x2="165" y2="105" stroke="black" stroke-width="3" />
<line x1="165" y1="105" x2="185" y2="105" stroke="black" stroke-width="3" />
<line x1="25" y1="125" x2="45" y2="125" stroke="black" stroke-width="3" />
<line x1="45" y1="125" x2="65" y2="125" stroke="black" stroke-width="3" />
<line x1="85" y1="125" x2="105" y2="125" stroke="black" stroke-width="3" />
<line x1="125" y1="125" x2="145" y2="125" stroke="black" stroke-width="3" />
<line x1="145" y1="125" x2="165" y2="125" stroke="black" stroke-width="3" />
<line x1="185" y1="125" x2="205" y2="125" stroke="black" stroke-width="3" />
<line x1="5" y1="145" x2="25" y2="145" stroke="black" stroke-width="3" />
<line x1="45" y1="145" x2="65" y2="145" stroke="black" stroke-width="3" />
<line x1="65" y1="145" x2="85" y2="145" stroke="black" stroke-width="3" />
<line x1="85" y1="145" x2="105" y2="145" stroke="black" stroke-width="3" />
<line x1="125" y1="145" x2="145" y2="145" stroke="black" stroke-width="3" />
<line x1="185" y1="145" x2="205" y2="145" stroke="black" stroke-width="3" />
<line x1="85" y1="165" x2="105" y2="165" stroke="black" stroke-width="3" />
<line x1="145" y1="165" x2="165" y2="165" stroke="black" stroke-width="3" />
<line x1="165" y1="165" x2="185" y2="165" stroke="black" stroke-width="3" />
<line x1="25" y1="185" x2="45" y2="185" stroke="black" stroke-width="3" />
<line x1="65" y1="185" x2="85" y2="185" stroke="black" stroke-width="3" />
<line x1="85" y1="185" x2="105" y2="185" stroke="black" stroke-width="3" />
<line x1="105" y1="185" x2="125" y2="185" stroke="black" stroke-width="3" />
<line x1="125" y1="185" x2="145" y2="185" stroke="black" stroke-width="3" />
<line x1="165" y1="185" x2="185" y2="185" stroke="black" stroke-width="3" />
<line x1="185" y1="185" x2="205" y2="185" stroke="black" stroke-width="3" />
<line x1="5" y1="205" x2="25" y2="205" stroke="black" stroke-width="3" />
<line x1="25" y1="205" x2="45" y2="205" stroke="black" stroke-width="3" />
<line x1="45" y1="205" x2="65" y2="205" stroke="black" stroke-width="3" />
<line x1="65" y1="205" x2="85" y2="205" stroke="black" stroke-width="3" />
<line x1="85" y1="205" x2="105" y2="205" stroke="black" stroke-width="3" />
<line x1="105" y1="205" x2="125" y2="205" stroke="black" stroke-width="3" />
<line x1="125" y1="205" x2="145" y2="205" stroke="black" stroke-width="3" />
<line x1="145" y1="205" x2="165" y2="205" stroke="black" stroke-width="3" />
<line x1="165" y1="205" x2="185" y2="205" stroke="black" stroke-width="3" />
<line x1="185" y1="205" x2="205" y2="205" stroke="black" stroke-width="3" />
<line x1="5" y1="145" x2="5" y2="165" stroke="green" stroke-width="3" />
<line x1="205" y1="5" x2="205" y2="25" stroke="red" stroke-width="3" />
</svg>